<?xml version="1.0" encoding="iso-8859-1"?>
<!-- Uploaded to: SVG Repo, www.svgrepo.com, Generator: SVG Repo Mixer Tools -->
<svg fill="#f2fdff" height="800px" width="800px" version="1.1" id="Layer_1" xmlns="http://www.w3.org/2000/svg" xmlns:xlink="http://www.w3.org/1999/xlink" 
	 viewBox="0 0 512 512" xml:space="preserve">
<g>
	<g>
		<path d="M406.292,0H105.115c-5.544,0-9.743,4.89-9.743,10.434v70.274c0,5.544,4.199,9.645,9.743,9.645h30.414v25.88
			c-12.549,6.949-20.078,19.895-20.078,34.726v60.26v220.863v40.179c0,22.13,17.685,39.74,39.787,39.74H366.21
			c22.102,0,40.379-17.61,40.379-39.74v-40.179V211.218v-60.26c0-14.831-7.529-27.78-20.078-34.726v-25.88h19.782
			c5.544,0,10.336-4.101,10.336-9.645V10.434C416.627,4.89,411.836,0,406.292,0z M316.235,20.078h30.118v50.196h-30.118V20.078z
			 M266.039,20.078h30.118v50.196h-30.118V20.078z M215.843,20.078h30.118v50.196h-30.118V20.078z M165.647,20.078h30.118v50.196
			h-30.118V20.078z M155.608,90.353h210.824v20.078H155.608V90.353z M115.451,70.275V20.078h30.118v50.196H115.451z M386.51,472.26
			c0,11.059-9.27,19.662-20.3,19.662H155.238c-11.031,0-19.708-8.603-19.708-19.662v-30.534h250.98V472.26z M386.51,421.647h-250.98
			V220.863h250.98V421.647z M386.51,200.784h-250.98v-49.826c0-11.059,8.678-20.449,19.708-20.449H366.21
			c11.031,0,20.3,9.39,20.3,20.449V200.784z M396.549,70.275h-20.375h-9.743V20.078h30.118V70.275z"/>
	</g>
</g>
</svg>